<svg xmlns="http://www.w3.org/2000/svg" viewBox="0 0 79.86 79.86"><defs><style>.cls-1{fill:#b2db15;}.cls-2{fill:#9dc10a;}.cls-3{fill:#73a505;}.cls-4{fill:#e3ff6e;}.cls-5{fill:#fff;}</style></defs><title>candy1</title><g id="Layer_2" data-name="Layer 2"><g id="OBJECTS"><path class="cls-1" d="M79.7,36.35a41.52,41.52,0,0,1,.07,6.4A38.12,38.12,0,0,1,79,48.22a36.21,36.21,0,0,1-1.46,5.16c-.4,1.13-.86,2.25-1.36,3.33A41,41,0,0,1,72.53,63a42,42,0,0,1-3.76,4.55,40.78,40.78,0,0,1-6.21,5.28c-.81.55-1.62,1.08-2.48,1.56a39.93,39.93,0,0,1-46-4.07c-.8-.68-1.58-1.4-2.32-2.16a38.76,38.76,0,0,1-5-6,39.93,39.93,0,0,1-3.24-5.84A40.5,40.5,0,0,1,.67,47.24c-.16-.87-.29-1.76-.4-2.65,0-.35-.07-.72-.11-1.08a42,42,0,0,1-.14-5,41,41,0,0,1,.43-4.59,38.8,38.8,0,0,1,1.49-6.28c.26-.84.57-1.68.9-2.5A40.43,40.43,0,0,1,6.36,18.3a42.88,42.88,0,0,1,4.25-5.5A40,40,0,0,1,76.05,22.88a40.47,40.47,0,0,1,2.48,6.77,41.48,41.48,0,0,1,.86,4.22C79.53,34.68,79.62,35.52,79.7,36.35Z"/><path class="cls-2" d="M79.05,47.9a1.8,1.8,0,0,1-.06.32,36.21,36.21,0,0,1-1.46,5.16c-.4,1.13-.86,2.25-1.36,3.33A41,41,0,0,1,72.53,63a42,42,0,0,1-3.76,4.55,40.78,40.78,0,0,1-6.21,5.28c-.81.55-1.62,1.08-2.48,1.56a39.93,39.93,0,0,1-46-4.07c-.8-.68-1.58-1.4-2.32-2.16a38.76,38.76,0,0,1-5-6,39.93,39.93,0,0,1-3.24-5.84A40.5,40.5,0,0,1,.67,47.24c-.16-.87-.29-1.76-.4-2.65,0-.35-.07-.72-.11-1.08a42,42,0,0,1-.14-5,41,41,0,0,1,.43-4.59,38.8,38.8,0,0,1,1.49-6.28c.26-.84.57-1.68.9-2.5A40.43,40.43,0,0,1,6.36,18.3a42.88,42.88,0,0,1,4.25-5.5A39.92,39.92,0,0,1,34.65.35,34.31,34.31,0,0,0,23,8.62a36.15,36.15,0,0,0-3.69,4.75,33.75,33.75,0,0,0-3,5.92c-.29.7-.56,1.43-.78,2.16a32,32,0,0,0-1.29,5.43,37.3,37.3,0,0,0-.38,4,39.47,39.47,0,0,0,.13,4.34l.09.94c.09.77.21,1.53.35,2.28a34.35,34.35,0,0,0,2.46,7.87,32.72,32.72,0,0,0,2.81,5,32,32,0,0,0,4.28,5.2,27.14,27.14,0,0,0,2,1.87,34.51,34.51,0,0,0,39.86,3.52c.74-.41,1.45-.87,2.14-1.34A34.59,34.59,0,0,0,73.28,56a37,37,0,0,0,3.26-3.94A33.9,33.9,0,0,0,79.05,47.9Z"/><path class="cls-3" d="M72.53,63a42,42,0,0,1-3.76,4.55,33.72,33.72,0,0,1-3.52-3.11c-2.14-2.14-5-5.49-8.27-5.68-3.78-.2-4.77,2.83-7,4.94a9.38,9.38,0,0,1-9.72,2.11c-4.62-1.47-7.29-5.18-10.64-8.37-2.35-2.24-4.51-3.8-7.72-2.72-2.77.94-4.91,3.58-7.43,5.06a17.69,17.69,0,0,1-7.75,2.37,39.93,39.93,0,0,1-3.24-5.84,15.64,15.64,0,0,0,5.84-1.38c4-1.77,6.79-5.42,11-6.72,8.3-2.54,12.5,5.08,17.87,9.57,1.25,1,3.76,3,5.63,2.67,1.45-.23,2.71-2.16,3.64-3.17a14,14,0,0,1,3.82-3.47c3-1.64,6.63-1.31,9.76-.06,4.11,1.63,6.83,5,9.94,7.94A19.6,19.6,0,0,0,72.53,63Z"/><path class="cls-3" d="M79.77,42.75A38.12,38.12,0,0,1,79,48.22,26.44,26.44,0,0,1,69.36,44c-4.62-3.32-9.08-9-15.09-9.65-4.89-.54-7.82,3.89-12.61,3.48-3.51-.32-6.07-3-8.82-4.94-5.65-4-11.07.51-16.54,3A29.21,29.21,0,0,1,0,38.5a41,41,0,0,1,.43-4.59c7.54-.38,15.22-5.26,21.93-8,3.27-1.32,6.63-1.95,10-.46,3.08,1.37,5,4.19,7.9,5.79,3.32,1.84,7.87-2.6,11.79-2.78s7.8,1.37,11.06,3.43c3.56,2.24,6.47,5.31,9.88,7.74A16.78,16.78,0,0,0,79.77,42.75Z"/><path class="cls-3" d="M76.05,22.88a46.73,46.73,0,0,1-9.48-4.18c-3.55-2-8.12-5.87-12.53-5.34-3.68.45-5.56,4.1-9.59,3.55-3.39-.46-4.92-3.43-7.67-4.93-4.86-2.65-10.27,2.25-14.59,4C17.4,17.86,11.61,19.18,6.36,18.3a42.88,42.88,0,0,1,4.25-5.5,23.5,23.5,0,0,0,4.56-.64c4.06-1,7.66-2.88,11.38-4.67,3.21-1.55,6.66-2.83,10.21-1.72,2.86.9,4.15,3.46,6.64,4.71,3.48,1.76,6.63-2,10.17-2.27,3.19-.2,6.29,1.1,9,2.56,3,1.62,6.08,3.54,9.21,5.14A39.72,39.72,0,0,1,76.05,22.88Z"/><path class="cls-4" d="M62.56,72.84c-.81.55-1.62,1.08-2.48,1.56-2.08-2.5-4.29-5-7-3.48-1.09.59-2,2.38-3.22,3.13a13.23,13.23,0,0,1-3.06,1.34,15.59,15.59,0,0,1-8.38-.06,27.56,27.56,0,0,1-8.28-4,14.29,14.29,0,0,1-2.5-2c-.58-.68-1.12-1.37-1.64-2.1-2.64-1.38-4.88-1.25-6.74.4-1.83.9-3.54,1.88-5.25,2.68-.8-.68-1.58-1.4-2.32-2.16a32.9,32.9,0,0,0,5.6-3.29c1.83-1.26,3.79-2.8,6.09-3a5.46,5.46,0,0,1,4.45,1.79c2.79,2.58,4.2,4.83,7.87,6.65,5,2.47,9.47,2.78,13.91-.77,1.36-1.09,2.16-2.32,4.08-2.47s3.86,1.16,5.19,2.38S61.41,71.87,62.56,72.84Z"/><path class="cls-4" d="M77.53,53.38c-.4,1.13-.86,2.25-1.36,3.33a35,35,0,0,1-10-5.55c-1.93-1.49-3.61-3.2-5.38-4.87-3-2.78-5.28-2.76-9-1C48.29,46.89,45.67,50,41.61,50.2c-8.86.39-11.54-11.11-21.37-8.34C16,43.07,12.38,46,8.05,47.06a18.2,18.2,0,0,1-7.38.18c-.16-.87-.29-1.76-.4-2.65a22.1,22.1,0,0,0,12.2-2.45c3.41-1.7,6.79-3.71,10.7-4a12.54,12.54,0,0,1,8.26,2.58c3,2.08,5.88,6.14,9.87,6,7.22-.24,11.66-9.58,19-4.77,3.37,2.2,6,5.5,9.35,7.78A25.09,25.09,0,0,0,77.53,53.38Z"/><path class="cls-4" d="M79.39,33.87a44.39,44.39,0,0,1-14.06-6.3c-5.21-3.57-8.62-6.23-15.14-3.85-2.87,1-5.91,2.46-9,2-4.29-.71-6.27-5.3-10.49-6.22-4.81-1.07-9.58,2.3-13.73,4.21-4.51,2.05-9.85,4-15,4,.26-.84.57-1.68.9-2.5A40.18,40.18,0,0,0,12,22.86c3.84-1.43,7.32-3.66,11.17-5.08,3-1.1,6.35-1.69,9.46-.63,3.54,1.19,5.4,4.87,9.07,5.54,4,.72,7.63-2.19,11.46-3,3.48-.69,6.28.14,9.29,1.93,3.87,2.32,7.2,5.19,11.47,6.85a23.25,23.25,0,0,0,4.65,1.15A41.48,41.48,0,0,1,79.39,33.87Z"/><path class="cls-5" d="M41.22,9.18C53.63,12.23,65,20,67.72,33.05c.4,2,3.28,1.81,3.15-.28-.93-14.69-16-24-29.38-25.13a.78.78,0,0,0-.27,1.54Z"/><path class="cls-5" d="M68.37,40.85a13.43,13.43,0,0,1-.15,3.85c-.24,1.23-.73,2.22-.06,3.38a1.23,1.23,0,0,0,1.43.44c1.5-.46,1.76-2.33,1.85-3.69a8.86,8.86,0,0,0-.86-4.48,1.15,1.15,0,0,0-2.21.5Z"/><path class="cls-5" d="M66.69,52.37a3.34,3.34,0,0,0-.84,2,1.84,1.84,0,0,0,1.23,2,1.81,1.81,0,0,0,2.18-.94,3.46,3.46,0,0,0,.26-2.17,1.63,1.63,0,0,0-1.11-1.37,1.61,1.61,0,0,0-1.72.49Z"/></g></g></svg>