<svg xmlns="http://www.w3.org/2000/svg" viewBox="0 0 132.77 280.83"><defs><style>.cls-1{fill:#e6995a;}.cls-2{fill:#bbda64;}.cls-2,.cls-3,.cls-4,.cls-6{fill-rule:evenodd;}.cls-3{fill:#ff99ad;}.cls-4{fill:#ffcfd9;}.cls-5,.cls-6{fill:#6e8a23;}</style></defs><title>gree_popsicle</title><g id="Layer_2" data-name="Layer 2"><g id="Objects"><rect class="cls-1" x="54.61" y="125.12" width="23.55" height="155.71" rx="11.77"/><path class="cls-2" d="M29.59,209.1h73.59a22.94,22.94,0,0,0,22.87-22.87V70.81A59.84,59.84,0,0,0,66.38,11.14h0A59.84,59.84,0,0,0,6.72,70.81V186.23A22.94,22.94,0,0,0,29.59,209.1Z"/><path class="cls-3" d="M132.77,79V66.38A66.57,66.57,0,0,0,66.39,0h0A66.57,66.57,0,0,0,0,66.38V80.75c0,23.7,10,38.61,15.77,38.61,21.87,0,7.48-49.7,24.6-50,18-.36,8,32.81,22.67,32,21-1.18,8.47-45.16,25.06-45.43,16.39-.25,11.19,49.21,29.66,48.18C129.57,103.38,132.77,93.2,132.77,79Z"/><path class="cls-4" d="M65,10.28c18.85,0,52.28,14.57,53.13,44.57s-14.57,18-14.57,6S81.27,39.42,80.42,48s-12,3.43-12-6-6.86-15.42-12-18S47.85,9.43,65,10.28Z"/><circle class="cls-5" cx="34.33" cy="140.17" r="7.87" transform="translate(-81.13 53.6) rotate(-39.38)"/><circle class="cls-5" cx="98.44" cy="140.17" r="7.87" transform="translate(-66.58 94.27) rotate(-39.38)"/><path class="cls-6" d="M93.11,154.36a26.8,26.8,0,0,1-53.45,0Z"/><path class="cls-2" d="M86.75,159.23a21.57,21.57,0,0,1-40.73,0Z"/></g></g></svg>