<svg xmlns="http://www.w3.org/2000/svg" viewBox="0 0 144.61 282.78"><defs><style>.cls-1{fill:#fccf94;}.cls-1,.cls-2,.cls-3,.cls-4{fill-rule:evenodd;}.cls-2{fill:#ff6668;}.cls-3{fill:#ff99ad;}.cls-4,.cls-5{fill:#c42022;}</style></defs><title>pink_cone</title><g id="Layer_2" data-name="Layer 2"><g id="Objects"><polygon class="cls-1" points="10.45 152.9 135.34 153.27 78.53 282.78 65.44 282.74 10.45 152.9"/><path class="cls-2" d="M130.53,99c8.88,8.61,14.12,19.23,14.08,30.7-.1,28.41-32.11,48.36-72.05,48.13S-.1,157.25,0,128.83c0-11.47,5.35-22,14.3-30.53A30.88,30.88,0,0,1,13,89.46c0-12.74,8-24.11,20.54-31.79C35.73,33,71.26,33,61.55,5.22,60,.84,64-.79,67,.35c21.57,8.34,44.54,28.57,45.58,56.48,0,.66,0,1.31,0,1.94,11.9,7.8,19.35,19,19.3,31.37A30.75,30.75,0,0,1,130.53,99Z"/><path class="cls-3" d="M128.61,140c-13,11.4-34.82,16.78-56,16.16V141.39c21.36,1.59,43.25-1.7,53.73-8.3,4-2.53,8.1,1.79,2.25,6.92Zm-56-27.35V98.27C89.89,99.8,107.58,98,116,94c3.41-1.61,6.54,1.44,1.82,5.58-10.52,9.21-28.14,13.55-45.23,13Zm0-41.93v-43c2.13-4.57,3.08-9.42,1.58-14.56-.77-2.63,1.73-6.83,3.81-2.6,7.5,15.27-3,28.82-3.33,39.22C74.09,66.19,92,64,103.13,56.7c4.18-2.75,3.86,1.33,2.17,3C97.27,67.48,83.75,71.24,72.63,70.73Zm0,85.44c-31.73-.93-62-15.37-58.9-43.25.72-6.46,2.83-11.74,4.95-.94,3.63,18.6,28.42,27.5,54,29.41v14.78Zm0-128.41v43c-10.91-.49-19.52-5.11-18.32-14.08,1.12-8.32,13.17-17.82,18.32-28.89Zm0,70.51C52.06,96.45,32.11,90,29.17,77c-2-8.64-3.41-4.45-4,.76-2.49,22.47,21.88,34.11,47.45,34.89Z"/><path class="cls-4" d="M44.17,201.37a6.91,6.91,0,1,0-6.9-6.9A6.92,6.92,0,0,0,44.17,201.37Z"/><path class="cls-4" d="M100.44,201.37a6.91,6.91,0,1,0-6.91-6.9A6.91,6.91,0,0,0,100.44,201.37Z"/><path class="cls-5" d="M72.36,200.11h.34a28.84,28.84,0,0,1,16,4.69c2.15,1.42,8.37,6.79,8.26,9.59.1,2.8-6.11,8.17-8.26,9.59a28.92,28.92,0,0,1-16,4.68h-.34v-6.28h.34a21.56,21.56,0,0,0,17.22-8,21.56,21.56,0,0,0-17.22-8h-.34Zm-24.7,14.26c-.1-2.94,6.71-8.36,9-9.76a30.53,30.53,0,0,1,15.72-4.5v6.27a23.31,23.31,0,0,0-17.55,8,23.26,23.26,0,0,0,17.55,8v6.28a30.62,30.62,0,0,1-15.72-4.5C54.37,222.74,47.55,217.32,47.66,214.37Z"/></g></g></svg>