<svg xmlns="http://www.w3.org/2000/svg" viewBox="0 0 190.41 255.71"><defs><style>.cls-1{fill:#ff6668;}.cls-1,.cls-2,.cls-3,.cls-5,.cls-6,.cls-7,.cls-9{fill-rule:evenodd;}.cls-2{fill:#ffa830;}.cls-3{fill:#ffdeba;}.cls-4{fill:#bf7361;}.cls-5{fill:#e69785;}.cls-6{fill:#bbda64;}.cls-7{fill:#f0ebb8;}.cls-8{fill:#ff99ad;}.cls-10,.cls-9{fill:#8a321f;}</style></defs><title>sundae</title><g id="Layer_2" data-name="Layer 2"><g id="Objects"><path class="cls-1" d="M185.47,1.79l2.39,2.06a7.4,7.4,0,0,1,.77,10.41L153,55.49a13.61,13.61,0,0,1-2.25,14l-7.2,8.34a13.57,13.57,0,0,1-19.09,1.39l-4.39-3.79a13.56,13.56,0,0,1-1.4-19.09L125.9,48a13.61,13.61,0,0,1,13.56-4.27l35.6-41.22A7.4,7.4,0,0,1,185.47,1.79Z"/><path class="cls-2" d="M49.39,43.54a43.07,43.07,0,1,1,6.44,60.57A43.08,43.08,0,0,1,49.39,43.54Z"/><path class="cls-3" d="M46.51,41.43a46.6,46.6,0,0,1,82.77,31.94c-.21,3.71-7.13,3.66-13.9-5-6.61-8.49-11.49-20-15.35-15.18-16.17,20-28.34-3-35.18-1.41C54.87,54,50.37,67.16,44.93,71.11c-5,3.63-9.41.29-8.25-7.37A46.36,46.36,0,0,1,46.51,41.43Z"/><circle class="cls-4" cx="126.09" cy="118.66" r="43.08" transform="translate(-22.93 206.83) rotate(-73.87)"/><path class="cls-5" d="M109.68,75a46.59,46.59,0,0,1,54.88,69.7c-2.07,3.08-8-.49-9.38-11.42-1.35-10.67.3-23-5.45-20.88-24.13,9-22.85-17-29.54-19.17-9.75-3.12-20.32,5.86-27,6.48-6.14.58-8.24-4.55-3.34-10.54A46.35,46.35,0,0,1,109.68,75Z"/><path class="cls-6" d="M10.28,95.7a43.08,43.08,0,1,1,13.47,59.41A43.09,43.09,0,0,1,10.28,95.7Z"/><path class="cls-7" d="M7.17,93.94A46.6,46.6,0,0,1,93.1,116c.23,3.71-6.64,4.47-14.38-3.37C71.16,105,65,94.16,61.7,99.35c-13.73,21.77-28.49.34-35.1,2.7C17,105.49,14,119,9.07,123.6,4.54,127.79-.24,125,0,117.25A46.4,46.4,0,0,1,7.17,93.94Z"/><rect class="cls-8" y="132.66" width="171.47" height="14.64"/><polygon class="cls-9" points="29.64 255.71 141.83 255.71 159.78 147.29 11.69 147.29 29.64 255.71"/><rect class="cls-8" x="34.51" y="132.66" width="14.64" height="123.05"/><rect class="cls-8" x="63.78" y="132.66" width="14.64" height="123.05"/><rect class="cls-8" x="93.05" y="132.66" width="14.64" height="123.05"/><rect class="cls-8" x="122.32" y="132.66" width="14.64" height="123.05"/><circle class="cls-8" cx="85.73" cy="201.5" r="44.76"/><path class="cls-10" d="M65.51,211.12a2.54,2.54,0,1,1,4.23-2.81A17.11,17.11,0,0,0,75,213.39a19.64,19.64,0,0,0,10.31,2.88,18.29,18.29,0,0,0,10.12-3,15.91,15.91,0,0,0,4.78-4.94,2.54,2.54,0,0,1,4.32,2.67,21.32,21.32,0,0,1-6.3,6.51,23.35,23.35,0,0,1-12.92,3.78,24.79,24.79,0,0,1-13-3.63A22.25,22.25,0,0,1,65.51,211.12Z"/><path class="cls-9" d="M62.89,203.56A7.87,7.87,0,1,0,55,195.69,7.89,7.89,0,0,0,62.89,203.56Z"/><path class="cls-9" d="M108.58,203.56a7.87,7.87,0,1,0-7.87-7.87A7.89,7.89,0,0,0,108.58,203.56Z"/></g></g></svg>